<svg width="309" height="97" viewBox="0 0 309 97" fill="none" xmlns="http://www.w3.org/2000/svg">
<path d="M252.993 2.53047C268.967 2.63826 274.332 3.78172 290.324 3.78172L301.974 4.40734C304.049 4.40734 303.111 12.2317 303.111 14.0698C303.111 15.9031 304.327 18.1333 304.691 20.048C305.664 25.159 304.9 30.4395 306.24 35.5149C310.065 50.0052 308.799 65.7134 308.799 80.7337C308.799 83.3741 308.527 86.7359 308.104 89.3535C307.547 92.8018 307.989 93.2462 304.818 93.2462C299.01 93.2462 293.463 95.1231 287.722 95.1231C274.102 95.1231 260.806 96.3744 247.178 96.3744C203.383 96.3744 159.622 97 115.846 97H39.1823H14.439H4.61121C1.86819 97 2.20953 96.2414 2.20953 93.5591C2.20953 81.4572 2.40253 69.3364 2.20953 57.238C2.13641 52.6537 0.503113 48.4761 0.503113 43.8218V30.4056C0.503113 27.9037 -0.816742 7.45868 0.819122 6.94461C4.70023 5.72496 8.4039 5.6586 12.5746 5.6586C18.9039 5.6586 25.0835 4.71345 31.3454 4.40734C38.6818 4.04872 45.9972 3.64128 53.4027 3.78172C58.092 3.87064 62.6349 5.29456 67.2754 5.62384C71.5301 5.92576 75.8725 5.6586 80.1368 5.6586C89.7056 5.6586 100.263 2.33816 109.747 5.38054C118.37 8.14687 128.787 7.50779 137.524 5.34578C154.701 1.09485 173.282 4.80612 190.771 2.84328C196.426 2.20862 201.92 2.4432 207.551 1.24446C212.523 0.185909 217.411 -0.0984171 222.466 0.0279615C226.806 0.136434 231.019 1.90484 235.423 1.90484C241.273 1.90484 247.107 2.49075 252.993 2.53047Z" fill="#FF0000"/>
<path d="M125.35 51.293C125.295 51.0195 125.186 50.5547 125.021 49.8984C124.912 49.2422 124.748 48.3945 124.529 47.3555C124.365 46.5352 124.201 45.7969 124.037 45.1406C123.873 44.4844 123.709 43.9375 123.545 43.5C123.162 42.4062 122.697 41.3398 122.15 40.3008C121.604 39.3164 120.975 38.3594 120.264 37.4297C119.389 38.0859 118.65 38.8789 118.049 39.8086C117.393 40.793 116.846 41.9414 116.408 43.2539C116.244 43.6914 116.08 44.2109 115.916 44.8125C115.752 45.3594 115.588 45.9609 115.424 46.6172C115.369 47 115.26 47.4922 115.096 48.0938C114.986 48.6953 114.85 49.3789 114.686 50.1445C114.521 50.8555 114.275 51.457 113.947 51.9492C113.674 52.4414 113.346 52.7695 112.963 52.9336C112.416 53.2617 111.787 53.3438 111.076 53.1797C110.42 53.0156 109.709 52.6055 108.943 51.9492C108.451 51.5117 107.904 50.9375 107.303 50.2266C106.646 49.5156 105.936 48.6406 105.17 47.6016C104.404 46.5625 103.693 45.6875 103.037 44.9766C102.436 44.2109 101.889 43.6367 101.396 43.2539C101.068 42.9258 100.631 42.5703 100.084 42.1875C99.5918 41.75 98.9629 41.2578 98.1973 40.7109C97.5957 40.1641 97.0762 39.6445 96.6387 39.1523C96.2559 38.6055 95.9551 38.0859 95.7363 37.5938C95.2441 39.2344 94.752 41.0664 94.2598 43.0898C93.7676 45.0586 93.3027 47.1914 92.8652 49.4883C92.5918 50.8008 92.2637 52.4688 91.8809 54.4922C91.498 56.5156 91.0605 58.8672 90.5684 61.5469C90.2402 63.3516 89.8848 65.1289 89.502 66.8789C89.1191 68.6289 88.6816 70.3789 88.1895 72.1289C88.0254 72.6758 87.8887 73.1133 87.7793 73.4414C87.6152 73.8242 87.4512 74.0977 87.2871 74.2617C87.0684 74.6445 86.7676 74.918 86.3848 75.082C86.2207 75.1367 86.002 75.1641 85.7285 75.1641C85.6191 75.1641 85.4824 75.1641 85.3184 75.1641C84.9355 75.1094 84.6074 74.918 84.334 74.5898C84.1152 74.3164 83.9238 73.9336 83.7598 73.4414C83.7598 73.2773 83.7598 73.0859 83.7598 72.8672C83.7598 72.7031 83.7598 72.5391 83.7598 72.375C83.8145 71.9922 83.8965 71.5547 84.0059 71.0625C84.498 68.3828 85.2637 64.3906 86.3027 59.0859C87.3418 54 88.2988 49.2969 89.1738 44.9766C90.1035 40.6016 90.9512 36.582 91.7168 32.918C91.8809 32.1523 92.0996 31.5234 92.373 31.0312C92.6465 30.5938 92.9746 30.293 93.3574 30.1289C93.9043 29.9102 94.4785 29.9375 95.0801 30.2109C95.6816 30.5391 96.3105 31.1133 96.9668 31.9336C97.5137 32.6992 98.0332 33.3555 98.5254 33.9023C98.9629 34.4492 99.3457 34.9141 99.6738 35.2969C100.166 35.9531 100.658 36.5547 101.15 37.1016C101.588 37.5938 102.025 38.0586 102.463 38.4961C103.502 39.5352 104.432 40.4375 105.252 41.2031C106.072 42.0234 106.729 42.707 107.221 43.2539C107.877 43.8555 108.451 44.457 108.943 45.0586C109.436 45.6602 109.873 46.2344 110.256 46.7812C110.475 46.5078 110.666 46.1797 110.83 45.7969C110.994 45.4141 111.131 44.9766 111.24 44.4844C111.35 43.9375 111.459 43.4727 111.568 43.0898C111.678 42.6523 111.76 42.2969 111.814 42.0234C112.033 41.4766 112.334 40.8203 112.717 40.0547C113.154 39.3438 113.674 38.5508 114.275 37.6758C114.986 36.6914 115.561 35.8438 115.998 35.1328C116.436 34.4219 116.764 33.8477 116.982 33.4102C117.201 32.7539 117.42 32.1797 117.639 31.6875C117.857 31.25 118.076 30.8945 118.295 30.6211C118.459 30.4023 118.623 30.2109 118.787 30.0469C119.006 29.8828 119.252 29.7461 119.525 29.6367C119.744 29.5273 119.963 29.4727 120.182 29.4727C120.236 29.4727 120.264 29.4727 120.264 29.4727C120.482 29.4727 120.701 29.5 120.92 29.5547C121.139 29.6641 121.385 29.8555 121.658 30.1289C121.932 30.457 122.205 30.8672 122.479 31.3594C123.244 32.8906 124.393 35.1602 125.924 38.168C126.635 39.5898 127.236 40.8203 127.729 41.8594C128.166 42.9531 128.467 43.8828 128.631 44.6484C128.795 45.25 128.959 45.9883 129.123 46.8633C129.287 47.7383 129.479 48.7773 129.697 49.9805C129.861 50.8555 130.217 51.9219 130.764 53.1797C131.256 54.4375 131.912 55.9141 132.732 57.6094C133.498 59.25 134.1 60.6992 134.537 61.957C135.029 63.2148 135.357 64.2812 135.521 65.1562C135.686 65.8125 135.795 66.3047 135.85 66.6328C135.904 66.9609 135.932 67.1797 135.932 67.2891C136.041 67.6719 136.15 68.0273 136.26 68.3555C136.424 68.6289 136.588 68.9023 136.752 69.1758C136.861 69.3945 137.025 69.6406 137.244 69.9141C137.463 70.1875 137.709 70.4883 137.982 70.8164C138.256 71.1445 138.447 71.4727 138.557 71.8008C138.666 72.0195 138.721 72.2656 138.721 72.5391C138.721 72.5391 138.721 72.5664 138.721 72.6211C138.721 72.8945 138.639 73.1406 138.475 73.3594C138.365 73.6328 138.201 73.8516 137.982 74.0156C137.709 74.2344 137.436 74.3711 137.162 74.4258C136.889 74.5352 136.615 74.5898 136.342 74.5898C135.795 74.5898 135.275 74.4531 134.783 74.1797C134.346 73.9062 133.908 73.5234 133.471 73.0312C133.197 72.6484 132.924 72.1836 132.65 71.6367C132.377 71.1445 132.131 70.5703 131.912 69.9141C131.912 69.9141 131.83 69.6406 131.666 69.0938C131.557 68.4922 131.365 67.6719 131.092 66.6328C130.818 65.7031 130.463 64.582 130.025 63.2695C129.533 62.0117 128.959 60.5625 128.303 58.9219C127.537 57.2266 126.908 55.75 126.416 54.4922C125.979 53.2344 125.623 52.168 125.35 51.293Z" fill="white"/>
<path d="M145.611 31.6055C145.885 31.0586 146.213 30.5938 146.596 30.2109C146.924 29.8281 147.279 29.582 147.662 29.4727C147.99 29.3633 148.264 29.3086 148.482 29.3086C148.701 29.3086 148.893 29.3359 149.057 29.3906C149.439 29.5 149.768 29.8008 150.041 30.293C150.096 30.457 150.123 30.6484 150.123 30.8672C150.123 30.9766 150.123 31.1133 150.123 31.2773C150.014 31.6602 149.85 32.0977 149.631 32.5898C148.482 34.9961 147.635 37.8672 147.088 41.2031C146.541 44.5391 146.295 48.2852 146.35 52.4414C146.404 58.2383 146.432 62.8867 146.432 66.3867C146.377 69.832 146.295 72.1289 146.186 73.2773C146.131 73.9336 145.994 74.4531 145.775 74.8359C145.502 75.2188 145.174 75.4648 144.791 75.5742C144.682 75.6289 144.545 75.6562 144.381 75.6562C144.162 75.6562 143.943 75.6016 143.725 75.4922C143.396 75.2734 143.068 74.918 142.74 74.4258C142.576 74.2617 142.467 73.9883 142.412 73.6055C142.357 73.2227 142.33 72.7305 142.33 72.1289C142.33 66.3867 142.33 57.7734 142.33 46.2891C142.33 44.6484 142.385 43.1992 142.494 41.9414C142.549 40.7383 142.686 39.6992 142.904 38.8242C143.068 37.5664 143.396 36.3359 143.889 35.1328C144.326 33.9297 144.9 32.7539 145.611 31.6055Z" fill="white"/>
<path d="M189.334 30.8672C189.279 35.2422 189.17 41.8047 189.006 50.5547C189.006 51.375 188.979 52.0859 188.924 52.6875C188.869 53.2891 188.787 53.8086 188.678 54.2461C188.623 55.1211 188.514 56.4609 188.35 58.2656C188.131 58.8672 187.967 59.4688 187.857 60.0703C187.748 60.6172 187.666 61.1641 187.611 61.7109C187.557 62.3672 187.502 63.4609 187.447 64.9922C187.393 66.5234 187.365 68.4648 187.365 70.8164C187.42 72.8398 187.393 74.6172 187.283 76.1484C187.119 77.6797 186.846 78.9922 186.463 80.0859C186.299 80.5234 186.135 80.8789 185.971 81.1523C185.752 81.4805 185.561 81.7266 185.396 81.8906C185.232 81.9453 185.041 81.9727 184.822 81.9727C184.658 81.9727 184.521 81.9727 184.412 81.9727C184.029 81.8633 183.619 81.6445 183.182 81.3164C183.018 81.207 182.826 81.0156 182.607 80.7422C182.389 80.4141 182.17 80.0039 181.951 79.5117C181.24 78.0352 180.201 75.793 178.834 72.7852C178.178 71.3633 177.576 70.1055 177.029 69.0117C176.482 67.918 175.99 67.0156 175.553 66.3047C173.584 62.9141 170.604 57.8828 166.611 51.2109C166.01 50.2812 165.49 49.4883 165.053 48.832C164.615 48.1758 164.232 47.6289 163.904 47.1914C163.412 46.3711 162.975 45.6328 162.592 44.9766C162.264 44.2656 161.963 43.6094 161.689 43.0078C161.908 44.8672 161.963 47.3281 161.854 50.3906C161.744 53.3984 161.525 56.9805 161.197 61.1367C160.979 62.9414 160.65 65.5938 160.213 69.0938C160.049 70.1328 159.885 70.9805 159.721 71.6367C159.611 72.293 159.475 72.7852 159.311 73.1133C159.146 73.6055 158.955 73.9883 158.736 74.2617C158.463 74.5898 158.189 74.8086 157.916 74.918C157.424 75.2461 156.986 75.3828 156.604 75.3281C156.221 75.2188 155.92 74.9727 155.701 74.5898C155.646 74.4258 155.592 74.207 155.537 73.9336C155.537 73.6602 155.537 73.332 155.537 72.9492C155.975 69.8867 156.631 65.3477 157.506 59.332C157.834 56.7617 158.025 54.3008 158.08 51.9492C158.135 49.5977 158.08 47.3281 157.916 45.1406C157.861 43.3359 157.889 41.8047 157.998 40.5469C158.162 39.3438 158.436 38.3867 158.818 37.6758C158.545 37.3477 158.354 36.9922 158.244 36.6094C158.135 36.2266 158.08 35.8711 158.08 35.543C158.025 35.1055 158.053 34.7227 158.162 34.3945C158.271 34.0664 158.49 33.7656 158.818 33.4922C159.037 33.3828 159.283 33.3281 159.557 33.3281C159.83 33.3281 160.131 33.3828 160.459 33.4922C160.732 33.6562 161.006 33.8203 161.279 33.9844C161.498 34.1484 161.689 34.3672 161.854 34.6406C162.018 34.75 162.209 35.0508 162.428 35.543C162.592 36.0898 162.838 36.8008 163.166 37.6758C163.275 38.1133 163.467 38.6055 163.74 39.1523C164.014 39.6992 164.369 40.3008 164.807 40.957C168.58 47.3555 174.213 56.8984 181.705 69.5859C182.088 70.4062 182.689 71.6094 183.51 73.1953C183.51 71.6094 183.51 69.2031 183.51 65.9766C183.51 64.7734 183.51 63.7344 183.51 62.8594C183.564 61.9844 183.619 61.2734 183.674 60.7266C183.893 60.0156 184.084 59.4141 184.248 58.9219C184.412 58.4297 184.521 57.9922 184.576 57.6094C184.576 56.6797 184.576 55.8867 184.576 55.2305C184.576 54.5742 184.576 54.0273 184.576 53.5898C184.74 52.9336 184.85 52.332 184.904 51.7852C185.014 51.2383 185.096 50.7461 185.15 50.3086C185.26 49.8164 185.342 49.2148 185.396 48.5039C185.451 47.7383 185.479 46.8906 185.479 45.9609C185.479 42.2422 185.479 36.6641 185.479 29.2266C185.479 28.7344 185.533 28.2969 185.643 27.9141C185.752 27.5312 185.889 27.2305 186.053 27.0117C186.271 26.8477 186.518 26.7383 186.791 26.6836C186.846 26.6836 186.9 26.6836 186.955 26.6836C187.119 26.6836 187.311 26.7383 187.529 26.8477C187.748 26.9023 187.967 27.0117 188.186 27.1758C188.404 27.3398 188.596 27.5312 188.76 27.75C188.979 28.0781 189.115 28.4883 189.17 28.9805C189.279 29.4727 189.334 30.1016 189.334 30.8672Z" fill="white"/>
<path d="M194.748 30.375C194.857 30.1016 194.967 29.8555 195.076 29.6367C195.186 29.418 195.35 29.1992 195.568 28.9805C195.842 28.7617 196.17 28.543 196.553 28.3242C196.936 28.1602 197.4 27.9961 197.947 27.832C200.189 27.2852 202.924 26.8477 206.15 26.5195C209.432 26.2461 213.232 26.082 217.553 26.0273C221.928 26.0273 225.729 25.8906 228.955 25.6172C232.236 25.3984 234.916 25.0156 236.994 24.4688C237.541 24.4141 237.979 24.3867 238.307 24.3867C238.471 24.3867 238.607 24.3867 238.717 24.3867C239.1 24.4414 239.373 24.5781 239.537 24.7969C239.701 25.0156 239.811 25.2344 239.865 25.4531C239.865 25.5625 239.865 25.6445 239.865 25.6992C239.865 25.8633 239.838 26.0547 239.783 26.2734C239.674 26.5469 239.564 26.8203 239.455 27.0938C239.346 27.3125 239.182 27.5039 238.963 27.668C238.635 27.9414 238.252 28.1602 237.814 28.3242C237.322 28.543 236.803 28.707 236.256 28.8164C234.178 29.3086 231.525 29.6641 228.299 29.8828C225.072 30.1562 221.271 30.3203 216.896 30.375C212.686 30.4297 208.967 30.5938 205.74 30.8672C202.514 31.1406 199.779 31.5508 197.537 32.0977C196.771 32.2617 196.17 32.3164 195.732 32.2617C195.295 32.1523 194.967 31.9609 194.748 31.6875C194.693 31.4688 194.666 31.25 194.666 31.0312C194.666 30.8125 194.693 30.5938 194.748 30.375ZM217.471 76.4766C217.416 76.4766 217.389 76.4766 217.389 76.4766C216.951 76.4766 216.65 76.2852 216.486 75.9023C216.268 75.5195 216.186 74.8906 216.24 74.0156C216.35 65.5391 216.486 52.8242 216.65 35.8711C216.65 35.2695 216.678 34.75 216.732 34.3125C216.787 33.875 216.869 33.5195 216.979 33.2461C217.197 32.6992 217.471 32.2891 217.799 32.0156C218.127 31.7422 218.482 31.6328 218.865 31.6875C219.357 31.7422 219.74 32.043 220.014 32.5898C220.232 33.1367 220.287 33.9297 220.178 34.9688C220.068 37.3203 219.932 40.875 219.768 45.6328C219.658 46.9453 219.604 48.1758 219.604 49.3242C219.604 50.4727 219.658 51.5391 219.768 52.5234C219.768 53.125 219.822 53.8906 219.932 54.8203C219.986 55.6953 220.096 56.7344 220.26 57.9375C220.26 58.7031 220.205 59.6602 220.096 60.8086C219.986 62.0117 219.85 63.3789 219.686 64.9102C219.631 65.5117 219.604 66.2227 219.604 67.043C219.658 67.8633 219.686 68.8203 219.686 69.9141C219.686 70.8984 219.631 71.8008 219.521 72.6211C219.412 73.4414 219.221 74.1797 218.947 74.8359C218.729 75.3281 218.51 75.7109 218.291 75.9844C218.018 76.2578 217.744 76.4219 217.471 76.4766Z" fill="white"/>
</svg>
